<svg width="40" height="40" viewBox="0 0 40 40" fill="none" xmlns="http://www.w3.org/2000/svg">
<path d="M33.6004 16.9258C34.0522 18.3344 34.2914 19.8316 34.2914 21.3909C34.2914 29.4618 27.7532 36 19.6823 36C11.6114 36 5.07324 29.4618 5.07324 21.3909C5.07324 19.8316 5.3213 18.3344 5.76427 16.9258" stroke="#d61842" stroke-miterlimit="10"/>
<path d="M29.7109 18.1838C30.0387 19.1938 30.2071 20.2746 30.2071 21.3909C30.2071 27.2027 25.4939 31.9158 19.6821 31.9158C13.8704 31.9158 9.15723 27.2027 9.15723 21.3909C9.15723 20.3101 9.3167 19.2647 9.62677 18.2813" stroke="#d61842" stroke-miterlimit="10"/>
<path d="M19.6822 14.1351C28.8955 14.1351 36.3643 11.8663 36.3643 9.06755C36.3643 6.26882 28.8955 4 19.6822 4C10.4689 4 3 6.26882 3 9.06755C3 11.8663 10.4689 14.1351 19.6822 14.1351Z" stroke="#d61842" stroke-miterlimit="10"/>
<path d="M3 9.0675V14.1351C3 16.9346 10.4684 19.2026 19.6822 19.2026C28.8959 19.2026 36.3643 16.9346 36.3643 14.1351V9.0675" stroke="#d61842" stroke-miterlimit="10"/>
</svg>
