<svg xmlns="http://www.w3.org/2000/svg" version="1.1" xmlns:xlink="http://www.w3.org/1999/xlink" xmlns:svgjs="http://svgjs.com/svgjs" width="512" height="512" x="0" y="0" viewBox="0 0 512 512" style="enable-background:new 0 0 512 512" xml:space="preserve" class=""><g><path d="M144 400h16v16h-16zM416 24h16v16h-16zM32 144h16v16H32zM56 236a28 28 0 1 0-28 28 28.031 28.031 0 0 0 28-28zm-28 12a12 12 0 1 1 12-12 12.013 12.013 0 0 1-12 12zM404 360a28 28 0 1 0 28 28 28.031 28.031 0 0 0-28-28zm0 40a12 12 0 1 1 12-12 12.013 12.013 0 0 1-12 12zM507.839 234.851l-23.8-13.019-13.019-23.8a8 8 0 0 0-14.037 0l-13.019 23.8-23.8 13.019a8 8 0 0 0 0 14.037l23.8 13.018 13.019 23.8a8 8 0 0 0 14.037 0l13.019-23.8 23.8-13.018a8 8 0 0 0 0-14.037zM474.3 248.992a8 8 0 0 0-3.18 3.18L464 265.2l-7.124-13.025a8 8 0 0 0-3.18-3.18l-13.024-7.123 13.024-7.124a8.007 8.007 0 0 0 3.18-3.18L464 218.541l7.124 13.024a8.007 8.007 0 0 0 3.18 3.18l13.024 7.124zM131.839 344.981l-23.8-13.019-13.019-23.8a8 8 0 0 0-14.037 0l-13.019 23.8-23.8 13.019a8 8 0 0 0 0 14.037l23.8 13.019 13.019 23.8a8 8 0 0 0 14.037 0l13.019-23.8 23.8-13.019a8 8 0 0 0 0-14.037zM98.3 359.124a8.007 8.007 0 0 0-3.18 3.18L88 375.328 80.876 362.3a8.007 8.007 0 0 0-3.18-3.18L64.672 352l13.028-7.124a8.007 8.007 0 0 0 3.18-3.18L88 328.672l7.124 13.028a8.007 8.007 0 0 0 3.18 3.18l13.024 7.12z" fill="#D61842" data-original="#000000" class="" opacity="1"></path><path d="M380.06 316.077a48.192 48.192 0 0 0-14.051-63.8l-.441-.305 97.058-143.489a8 8 0 0 0-2.569-11.383l-136-80a8 8 0 0 0-10.672 2.4L304 33.3V8a8 8 0 0 0-8-8H152a8 8 0 0 0-8 8v2.584L29.029 56.572a8 8 0 0 0-4.278 10.811l112 240a7.993 7.993 0 0 0 10.326 4l18.249-7.6 19.269 25.763c.052.069.105.138.159.206A33.18 33.18 0 0 1 192 350.405V512h16V398.944c.658-10.925 3.98-30.546 18.335-46.265C241.289 336.3 264.729 328 296 328a8 8 0 0 0 6.247-3l32-40a8 8 0 0 0-2.669-12.153 80.78 80.78 0 0 1-20.678-16.253c-9.456-10.315-14.687-21.652-15.639-33.839l61.639 42.676a32.132 32.132 0 0 1 9.512 42.287l-60.981 87.716A8 8 0 0 0 304 400v112h16V402.508l59.732-85.92q.173-.249.328-.511zM160 16h128v40.833l-32.437 47.7-22.19-22.19a8 8 0 0 0-11.314 0l-28.284 28.284a8 8 0 0 0 0 11.314l28.284 28.284a8 8 0 0 0 1.6 1.228L177.385 219.5a8 8 0 0 0 2.259 11.208L218.59 256H160zm67.716 117.255-16.971-16.971 16.971-16.971 16.971 16.971zM42.828 68.285 144 27.816V264a8 8 0 0 0 8 8h48l-52 21.665zM292.123 312.04c-34.053.7-60.147 10.735-77.6 29.85a79.871 79.871 0 0 0-6.527 8.176 49.239 49.239 0 0 0-10.66-30.2l-16.774-22.427 62.035-25.848 53.895 35zm6.979-44.634a100.037 100.037 0 0 0 16.983 14.68l-9.553 11.942-111.321-72.287L322.4 34.694l122.2 71.881-92.187 136.289-59.859-41.441a8 8 0 0 0-12.445 5.262c-3.691 22.142 2.877 43.139 18.991 60.721z" fill="#D61842" data-original="#000000" class="" opacity="1"></path><path d="M304.284 191.716h40a8 8 0 0 0 8-8v-40a8 8 0 0 0-8-8h-40a8 8 0 0 0-8 8v40a8 8 0 0 0 8 8zm8-40h24v24h-24zM104 72H80a8 8 0 0 0-8 8v24a8 8 0 0 0 8 8h24a8 8 0 0 0 8-8V80a8 8 0 0 0-8-8zm-8 24h-8v-8h8zM192.971 72a7.978 7.978 0 0 0 5.657-2.343l16.972-16.97a8 8 0 0 0 0-11.314L198.628 24.4a8 8 0 0 0-11.314 0l-16.971 16.972a8 8 0 0 0 0 11.314l16.971 16.971A7.978 7.978 0 0 0 192.971 72zm0-30.628 5.657 5.657-5.657 5.657-5.657-5.657zM320 104h24a8 8 0 0 0 8-8V72a8 8 0 0 0-8-8h-24a8 8 0 0 0-8 8v24a8 8 0 0 0 8 8zm8-24h8v8h-8z" fill="#D61842" data-original="#000000" class="" opacity="1"></path></g></svg>