<svg version="1.0" viewBox="0 0 40 40" xmlns="http://www.w3.org/2000/svg" xmlns:xlink="http://www.w3.org/1999/xlink">
<style type="text/css">
	.st0{fill:none;stroke:#d61842;stroke-miterlimit:10;}
	.st1{fill:#d61842;}
</style>
<g>
	<path class="st0" d="M19.5,4h1.3l2,6h-5.3L19.5,4z"/>
	<path class="st0" d="M17.2,10h6c0.1,0,0.2,0.1,0.2,0.2v13.4c0,1.7-1.4,3.1-3.1,3.1c-1.7,0-3.1-1.4-3.1-3.1V10.2
		C17,10.1,17.1,10,17.2,10L17.2,10z"/>
	<path class="st1" d="M18.8,6.1h2.7L20.8,4h-1.3L18.8,6.1z"/>
	<path class="st0" d="M20.1,26.7v9"/>
	<path class="st0" d="M18.3,35.7H22"/>
	<path class="st0" d="M18.3,29.7H22"/>
	<path class="st0" d="M17.3,33.7H23"/>
	<path class="st0" d="M17.3,31.7H23"/>
	<path class="st0" d="M17,22.6h6.3"/>
</g>
</svg>