<svg xmlns="http://www.w3.org/2000/svg" version="1.1" xmlns:xlink="http://www.w3.org/1999/xlink" xmlns:svgjs="http://svgjs.com/svgjs" width="512" height="512" x="0" y="0" viewBox="0 0 512 512" style="enable-background:new 0 0 512 512" xml:space="preserve" fill-rule="evenodd" class=""><g><path d="M351.25 453.37H136.46c-20.23 0-36.68-16.46-36.68-36.69V386c0-3.31 2.68-6 6-6h276.15c3.31 0 6 2.69 6 6v30.68c0 20.23-16.46 36.69-36.68 36.69zM111.78 392v24.68c0 13.61 11.07 24.69 24.68 24.69h214.79c13.61 0 24.68-11.07 24.68-24.69V392z" fill="#d61842" data-original="#000000" opacity="1" class=""></path><path d="M300.11 392H187.6c-3.31 0-6-2.69-6-6v-40.03c0-2.09 1.09-4.03 2.87-5.12a5.978 5.978 0 0 1 5.85-.23c16.68 8.48 34.69 12.78 53.53 12.78 18.85 0 36.86-4.3 53.54-12.78 1.86-.94 4.07-.86 5.85.23s2.87 3.03 2.87 5.12V386c0 3.31-2.69 6-6 6zM193.6 380h100.51v-24.64c-15.89 6.67-32.75 10.04-50.26 10.04s-34.37-3.37-50.25-10.04z" fill="#d61842" data-original="#000000" opacity="1" class=""></path><path d="M280.29 432.91h-72.87c-3.32 0-6-2.68-6-6V386c0-3.31 2.68-6 6-6h72.87c3.31 0 6 2.69 6 6v40.91c0 3.32-2.69 6-6 6zm-66.87-12h60.87V392h-60.87zM243.85 365.4c-71.82 0-130.26-58.43-130.26-130.26s58.44-130.26 130.26-130.26c71.83 0 130.27 58.43 130.27 130.26S315.68 365.4 243.85 365.4zm0-248.52c-65.21 0-118.26 53.05-118.26 118.26S178.64 353.4 243.85 353.4s118.27-53.05 118.27-118.26-53.06-118.26-118.27-118.26z" fill="#d61842" data-original="#000000" opacity="1" class=""></path><path d="M243.85 330.64c-52.65 0-95.5-42.84-95.5-95.5s42.85-95.5 95.5-95.5c52.66 0 95.5 42.84 95.5 95.5s-42.84 95.5-95.5 95.5zm0-179c-46.04 0-83.5 37.46-83.5 83.5s37.46 83.5 83.5 83.5c46.05 0 83.51-37.46 83.51-83.5s-37.46-83.5-83.51-83.5zM74.26 446H10.84C4.87 446 .01 441.14.01 435.17V316.18c0-5.97 4.86-10.83 10.83-10.83h63.42c5.97 0 10.83 4.86 10.83 10.83v118.99c0 5.97-4.86 10.83-10.83 10.83zm-62.25-12h61.08V317.35H12.01z" fill="#d61842" data-original="#000000" opacity="1" class=""></path><path d="M79.09 419.12H6.01c-3.31 0-6-2.68-6-6v-96.94c0-5.97 4.86-10.83 10.83-10.83h63.42c5.97 0 10.83 4.86 10.83 10.83v96.94c0 3.32-2.69 6-6 6zm-67.08-12h61.08v-89.77H12.01z" fill="#d61842" data-original="#000000" opacity="1" class=""></path><path d="M55.08 317.35H30.02c-3.32 0-6-2.68-6-6V138.61c0-3.31 2.68-6 6-6h25.06c3.32 0 6 2.69 6 6v172.74c0 3.32-2.68 6-6 6zm-19.06-12h13.06V144.61H36.02z" fill="#d61842" data-original="#000000" opacity="1" class=""></path><path d="M59.84 144.61H25.26c-3.31 0-6-2.68-6-6V64.63c0-3.31 2.69-6 6-6 22.38 0 40.58 18.2 40.58 40.58v39.4c0 3.32-2.69 6-6 6zm-28.58-12h22.58v-33.4c0-13.7-9.69-25.18-22.58-27.94zM440.27 445.89c-18.86 0-34.24-15.28-35.02-34.79l-8.76-218.51a6.001 6.001 0 0 1 5.99-6.24h75.58c1.63 0 3.19.66 4.33 1.84a6.042 6.042 0 0 1 1.67 4.4l-8.77 218.51c-.78 19.51-16.16 34.79-35.02 34.79zm-31.54-247.54 8.51 212.27c.52 13.05 10.64 23.27 23.03 23.27s22.51-10.22 23.03-23.27l8.52-212.27z" fill="#d61842" data-original="#000000" opacity="1" class=""></path><path d="M474.26 293.1h-67.98c-3.31 0-6-2.69-6-6s2.69-6 6-6h67.98c3.31 0 6 2.69 6 6s-2.68 6-6 6zM470.09 397.15h-59.63c-3.32 0-6-2.68-6-6 0-3.31 2.68-6 6-6h59.63c3.31 0 6 2.69 6 6 0 3.32-2.69 6-6 6zM402.48 198.35c-2.69 0-5.13-1.82-5.82-4.54L368.74 82.63c-.69-2.74.62-5.59 3.16-6.84 45.93-22.68 91.96-22.67 136.8.03a5.995 5.995 0 0 1 3.11 6.81l-27.93 111.18a5.998 5.998 0 0 1-7.28 4.35 5.988 5.988 0 0 1-4.36-7.28l26.74-106.46c-38.98-18.4-77.48-18.38-117.41.05l26.73 106.41c.81 3.22-1.14 6.48-4.35 7.28-.5.13-.99.19-1.47.19z" fill="#d61842" data-original="#000000" opacity="1" class=""></path><path d="M440.27 198.35c-3.31 0-6-2.69-6-6v-27.38c0-3.32 2.69-6 6-6s6 2.68 6 6v27.38c0 3.31-2.68 6-6 6zM421.91 198.35c-2.84 0-5.36-2.03-5.89-4.92l-12.6-68.73c-.6-3.26 1.56-6.38 4.82-6.98s6.39 1.56 6.98 4.82l12.6 68.73c.6 3.25-1.56 6.38-4.82 6.98-.36.07-.73.1-1.09.1zM458.62 198.35c-.36 0-.72-.04-1.09-.1-3.26-.6-5.42-3.73-4.82-6.98l12.6-68.73c.6-3.26 3.72-5.42 6.98-4.82s5.42 3.72 4.82 6.98l-12.6 68.73a6.001 6.001 0 0 1-5.89 4.92z" fill="#d61842" data-original="#000000" opacity="1" class=""></path></g></svg>