<svg version="1.0" viewBox="0 0 40 40" xmlns="http://www.w3.org/2000/svg" xmlns:xlink="http://www.w3.org/1999/xlink">
<style type="text/css">
	.st0{fill:none;stroke:#d61842;stroke-miterlimit:10;}
	.st1{fill:none;stroke:#d61842;stroke-linejoin:round;stroke-miterlimit:10;}
</style>
<g>
	<path class="st0" d="M24.9,11.8c-2-1.2-4.4-1.9-7-1.9C10.8,9.8,5,15.3,5,22.1c0,6.8,5.8,12.3,12.9,12.3c3.5,0,6.6-1.3,8.9-3.4"/>
	<path class="st0" d="M25.8,17.2c-1.7-2.4-4.6-4-7.8-4c-5.2,0-9.4,4-9.4,8.9s4.2,8.9,9.4,8.9c3.8,0,7-2.1,8.5-5.2"/>
	<path class="st0" d="M29.5,34.3c-1.3,0-2.5-1-2.5-2.2l-1.4-17.7h7.9L32,32.1C31.9,33.4,30.8,34.3,29.5,34.3L29.5,34.3z"/>
	<path class="st1" d="M35,5.4c-3.8-1.1-8.1,0.2-11,2.2l1.6,6.7h7.9L35,5.4L35,5.4z"/>
	<path class="st0" d="M25.9,19.6h7"/>
	<path class="st0" d="M29.5,14.4V7.9"/>
	<path class="st0" d="M27.6,14.4l-0.8-5.8"/>
	<path class="st0" d="M31.4,14.4l0.8-6.5"/>
</g>
</svg>