<svg xmlns="http://www.w3.org/2000/svg" version="1.1" xmlns:xlink="http://www.w3.org/1999/xlink" xmlns:svgjs="http://svgjs.com/svgjs" width="512" height="512" x="0" y="0" viewBox="0 0 512 512" style="enable-background:new 0 0 512 512" xml:space="preserve" class=""><g><path d="M470.985 95.637a6.999 6.999 0 0 0-9.313.433l-56.087 54.955a19.899 19.899 0 0 0-11.022 6.873l-72.476 89.214-6.556-5.326h-.001a18.124 18.124 0 0 0-13.921-3.868 18.127 18.127 0 0 0-12.305 7.568l-142.517 204.71c-5.377 7.722-3.868 18.418 3.436 24.352l15.59 12.665c3.318 2.696 7.353 4.02 11.375 4.02 4.83 0 9.641-1.909 13.165-5.644L361.529 304.16a18.13 18.13 0 0 0 4.888-13.595 18.135 18.135 0 0 0-6.637-12.834l-6.557-5.327L425.7 183.19c2.912-3.585 4.359-7.88 4.456-12.175l42.314-66.175a7 7 0 0 0-1.485-9.203zM351.344 294.553 180.17 475.981a4.09 4.09 0 0 1-5.529.367l-15.59-12.665a4.086 4.086 0 0 1-.774-5.486l142.518-204.711a4.037 4.037 0 0 1 3.347-1.745c.695 0 1.651.173 2.562.912l44.248 35.946a4.042 4.042 0 0 1 1.495 2.892 4.042 4.042 0 0 1-1.103 3.062zm-18.392-38.614 72.477-89.214a6.018 6.018 0 0 1 4.077-2.206 6.02 6.02 0 0 1 4.443 1.324 6.065 6.065 0 0 1 .883 8.521l-72.477 89.214zM268.593 57.826c31.444 9.445 61.223 22.189 92.654 26.439-.119.217-.236.44-.356.655-11.787 21.068-28.515 39.063-48.505 52.954-27.346 19.165-59.579 29.842-92.588 34.706-5.579 1.014-4.621 9.037.953 8.823 35.02-2.117 70.455-10.841 101.053-28.689 27.4-15.911 51.617-39.021 66.873-67.166a133.435 133.435 0 0 0 24.387-3.43c13.706-3.123 26.334-7.938 38.765-13.945 5.499-2.835 10.873-5.822 16.096-9.197 1.285-.852 2.174-2.313 2.217-3.971.08-2.761-2.172-5.038-4.926-5.023-4.939-.128-9.745.062-14.511.3-13.673.599-27.983 1.509-41.334 1.656-26.529.651-52.084-5.211-77.756-11.083-25.428-5.539-51.786-10.711-77.285-15.692C171.1 8.124 86.862 41.352 39.452 112.152c-4.047 6.563 4.905 12.576 9.502 6.91 22.492-28.639 53.175-51.075 87.394-63.083 43.371-15.447 89.004-12.107 132.245 1.847z" fill="#d61842" data-original="#000000" opacity="1"></path></g></svg>