<svg xmlns="http://www.w3.org/2000/svg" version="1.1" xmlns:xlink="http://www.w3.org/1999/xlink" xmlns:svgjs="http://svgjs.com/svgjs" width="512" height="512" x="0" y="0" viewBox="0 0 64 64" style="enable-background:new 0 0 512 512" xml:space="preserve" class=""><g><g data-name="22-Foundation"><path d="M7 18a4 4 0 0 1-4-4c0-1.788 2.092-6 4-6s4 4.212 4 6a4 4 0 0 1-4 4zm0-7.931A7.54 7.54 0 0 0 5 14a2 2 0 0 0 4 0 7.54 7.54 0 0 0-2-3.931zm.146-.092h-.292zM28 64H10a3 3 0 0 1-3-3V25a1 1 0 0 1 1-1h22a1 1 0 0 1 1 1v36a3 3 0 0 1-3 3zM9 26v35a1 1 0 0 0 1 1h18a1 1 0 0 0 1-1V26z" fill="#d61842" data-original="#000000" opacity="1" class=""></path><path d="M26 26H12a1 1 0 0 1-1-1v-8a1 1 0 0 1 1-1h14a1 1 0 0 1 1 1v8a1 1 0 0 1-1 1zm-13-2h12v-6H13z" fill="#d61842" data-original="#000000" opacity="1" class=""></path><path d="M26 17h-2v-2H14v2h-2v-3a1 1 0 0 1 1-1h12a1 1 0 0 1 1 1z" fill="#d61842" data-original="#000000" opacity="1" class=""></path><path d="M24 14h-2V7.721L16.838 6H13v1h2a1 1 0 0 1 1 1v6h-2V9h-2a1 1 0 0 1-1-1V5a1 1 0 0 1 1-1h5a1 1 0 0 1 .316.052l6 2A1 1 0 0 1 24 7zM24 53H14a1 1 0 0 1-1-1V34a1 1 0 0 1 1-1h10a1 1 0 0 1 1 1v18a1 1 0 0 1-1 1zm-9-2h8V35h-8zM54 64H36a3 3 0 0 1-3-3V25a1 1 0 0 1 1-1h22a1 1 0 0 1 1 1v36a3 3 0 0 1-3 3zM35 26v35a1 1 0 0 0 1 1h18a1 1 0 0 0 1-1V26z" fill="#d61842" data-original="#000000" opacity="1" class=""></path><path d="M57 25h-2V2H35v14h-2V1a1 1 0 0 1 1-1h22a1 1 0 0 1 1 1zM33 18h2v2h-2zM33 22h2v3h-2z" fill="#d61842" data-original="#000000" opacity="1" class=""></path><path d="M51 4h2v2h-2zM50 53H40a1 1 0 0 1-1-1V34a1 1 0 0 1 1-1h10a1 1 0 0 1 1 1v18a1 1 0 0 1-1 1zm-9-2h8V35h-8zM51 8h2v2h-2zM27 60H11a4 4 0 0 1-4-4v-4h2v4a2 2 0 0 0 2 2h16a2 2 0 0 0 2-2v-3h2v3a4 4 0 0 1-4 4z" fill="#d61842" data-original="#000000" opacity="1" class=""></path><path d="M53 60H37a4 4 0 0 1-4-4v-4h2v4a2 2 0 0 0 2 2h16a2 2 0 0 0 2-2v-3h2v3a4 4 0 0 1-4 4z" fill="#d61842" data-original="#000000" opacity="1" class=""></path></g></g></svg>