<svg xmlns="http://www.w3.org/2000/svg" version="1.1" xmlns:xlink="http://www.w3.org/1999/xlink" xmlns:svgjs="http://svgjs.com/svgjs" width="512" height="512" x="0" y="0" viewBox="0 0 6773 6773" style="enable-background:new 0 0 512 512" xml:space="preserve" fill-rule="evenodd" class=""><g><circle cx="3387" cy="3387" r="3387" fill="#FFFFFF" data-original="#ff1100" class="" opacity="0"></circle><path fill="#FFFFFF" d="M3096 2358c-26 0-49-17-56-42l-274-1024c-9-31 10-62 40-71 31-8 63 10 71 41l274 1024c9 31-10 62-40 70-5 2-10 2-15 2zm-801 2978c-10 0-20-3-29-8-28-16-37-51-21-79l530-917c15-28 51-37 78-22 28 16 37 52 21 79l-529 918c-11 18-30 29-50 29zm526 218c-4 0-10-1-15-2-30-8-49-40-40-71l274-1023c8-31 40-49 71-41 30 8 49 40 40 71l-274 1023c-7 26-30 43-56 43zm1131 0c-26 0-49-17-56-43l-274-1023c-8-31 10-63 41-71s62 10 70 41l275 1023c8 31-10 63-41 71-5 1-10 2-15 2zm527-218c-20 0-40-11-50-29l-530-918c-16-27-7-63 21-79 28-15 63-6 79 22l530 917c16 28 6 63-21 79-10 5-20 8-29 8zm799-800c-10 0-20-2-29-7l-918-530c-27-16-37-51-21-79s51-37 79-21l918 530c28 16 37 51 21 79-11 18-30 28-50 28zm218-526c-5 0-10-1-15-2l-1023-275c-31-8-49-39-41-70s40-49 71-41l1023 274c31 8 49 40 41 71-7 26-30 43-56 43zm-1023-857c-26 0-49-17-56-42-8-31 10-63 41-71l1023-274c31-9 63 10 71 40 8 31-10 63-41 71l-1023 274c-5 2-10 2-15 2zm-113-271c-20 0-39-10-50-29-16-27-6-62 21-78l918-530c28-16 63-7 79 21 16 27 6 63-21 79l-918 530c-9 5-19 7-29 7zm-411-411c-10 0-20-3-29-8-28-16-37-51-21-79l530-918c16-27 51-37 79-21 27 16 37 52 21 79l-530 918c-11 18-30 29-50 29zm-271-113c-5 0-10 0-15-2-31-8-49-39-41-70l274-1024c8-31 40-49 71-41 31 9 49 40 41 71l-275 1024c-7 25-30 42-55 42zm-1086 291c-15 0-30-5-41-17l-500-499c-22-23-22-59 0-82 23-22 59-22 82 0l499 500c23 22 23 59 0 81-11 12-26 17-40 17zm-330 795h-706c-32 0-58-25-58-57s26-58 58-58h706c32 0 58 26 58 58s-26 57-58 57zm-170 1295c-15 0-29-6-41-17-22-22-22-59 0-82l500-499c22-23 59-23 81 0 23 22 23 59 0 81l-499 500c-11 11-26 17-41 17zm1295 536c-32 0-58-26-58-58v-706c0-32 26-58 58-58s57 26 57 58v706c0 32-25 58-57 58zm1294-536c-15 0-29-6-41-17l-499-500c-23-22-23-59 0-81 22-23 59-23 81 0l500 499c23 23 23 60 0 82-11 11-26 17-41 17zm536-1295h-706c-32 0-58-25-58-57s26-58 58-58h706c32 0 58 26 58 58s-26 57-58 57zm-1035-795c-15 0-30-5-41-17-23-22-23-59 0-81l499-500c23-22 60-22 82 0 23 23 23 59 0 82l-500 499c-11 12-26 17-40 17zm-795-329c-32 0-58-26-58-58v-706c0-32 26-58 58-58s57 26 57 58v706c0 32-25 58-57 58zm0 1919c-471 0-853-382-853-852s382-853 853-853c470 0 852 383 852 853s-382 852-852 852zm-1892 297c-20 0-39-10-50-28-16-28-6-63 21-79l918-530c28-16 63-7 79 21s6 63-21 79l-918 530c-9 5-19 7-29 7zm-218-526c-25 0-49-17-56-43-8-31 10-62 41-71l1024-274c31-8 62 10 70 41 9 31-10 62-40 70l-1024 275c-5 1-10 2-15 2zm1024-857c-5 0-10 0-15-2l-1024-274c-31-8-49-40-41-70 9-31 40-50 71-41l1024 274c30 8 49 40 40 71-7 25-30 42-55 42zm112-271c-10 0-20-2-29-7l-918-530c-27-16-37-52-21-79 16-28 52-37 79-21l918 530c27 16 37 51 21 78-11 19-30 29-50 29zm412-411c-20 0-40-11-50-29l-530-918c-16-27-7-63 21-79 27-16 63-6 79 21l529 918c16 28 7 63-21 79-9 5-19 8-28 8z" data-original="#ffffff" class=""></path></g></svg>