<svg xmlns="http://www.w3.org/2000/svg" version="1.1" xmlns:xlink="http://www.w3.org/1999/xlink" xmlns:svgjs="http://svgjs.com/svgjs" width="512" height="512" x="0" y="0" viewBox="0 0 371.643 371.643" style="enable-background:new 0 0 512 512" xml:space="preserve" class=""><g><path d="M211.943 91.847c0-36.95-30.061-67.012-67.013-67.012-36.95 0-67.011 30.062-67.011 67.012s30.061 67.011 67.011 67.011c36.951-.001 67.013-30.061 67.013-67.011zm-119.024 0c0-28.68 23.332-52.012 52.011-52.012 28.68 0 52.013 23.332 52.013 52.012 0 28.679-23.333 52.011-52.013 52.011-28.679-.001-52.011-23.333-52.011-52.011z" fill="#FFFFFF" data-original="#000000" opacity="1" class=""></path><path d="M152.43 56.521c0-4.143-3.357-7.5-7.5-7.5-23.613 0-42.824 19.212-42.824 42.826 0 4.143 3.357 7.5 7.5 7.5s7.5-3.357 7.5-7.5c0-15.344 12.481-27.826 27.824-27.826a7.5 7.5 0 0 0 7.5-7.5z" fill="#FFFFFF" data-original="#000000" opacity="1" class=""></path><path d="M297.186 228.116c-13.805-13.804-32.158-21.406-51.68-21.406-12.405 0-24.334 3.081-34.928 8.862a91.782 91.782 0 0 0-26.922-19.067 17.035 17.035 0 0 0 3.763-10.684c0-4.048-1.419-7.766-3.775-10.7 31.352-14.633 53.133-46.455 53.133-83.274C236.778 41.202 195.575 0 144.93 0 94.287 0 53.084 41.202 53.084 91.847c0 36.819 21.781 68.642 53.133 83.274a17.045 17.045 0 0 0-3.773 10.7c0 4.048 1.418 7.766 3.774 10.7-31.352 14.633-53.134 46.456-53.134 83.275 0 50.643 41.202 91.846 91.846 91.846a91.709 91.709 0 0 0 65.648-27.622c10.596 5.78 22.523 8.861 34.93 8.861 19.521 0 37.874-7.602 51.678-21.405 28.496-28.497 28.496-74.864 0-103.36zm-2.037 21.534-79.803 79.804c-.629-.384-5.93-3.589-10.912-8.585a58.908 58.908 0 0 1-8.586-10.913l79.818-79.818a58.487 58.487 0 0 1 10.912 8.586 57.967 57.967 0 0 1 8.571 10.926zm-122.73 30.146c0 12.973 3.376 25.421 9.68 36.37-9.759 9.992-23.032 15.643-37.169 15.643-28.679 0-52.011-23.332-52.011-52.012s23.332-52.012 52.011-52.012c14.137 0 27.41 5.65 37.168 15.642-6.303 10.949-9.679 23.396-9.679 36.369zm88.412-56.037L189.47 295.12a58.32 58.32 0 0 1-2.05-15.324c0-15.515 6.043-30.102 17.015-41.072 10.971-10.972 25.558-17.014 41.072-17.014 5.25 0 10.389.708 15.324 2.049zM68.084 91.847C68.084 49.474 102.557 15 144.93 15c42.374 0 76.848 34.474 76.848 76.847 0 42.372-34.474 76.845-76.848 76.845-42.373-.001-76.846-34.473-76.846-76.845zm51.489 96.104a2.132 2.132 0 0 1-2.129-2.13c0-1.175.955-2.13 2.129-2.13h50.717c1.175 0 2.13.955 2.13 2.13 0 1.175-.955 2.13-2.13 2.13h-50.717zm25.357 168.692c-42.373 0-76.846-34.473-76.846-76.846 0-42.373 34.473-76.846 76.846-76.846a76.74 76.74 0 0 1 53.101 21.301c-1.485 1.191-4.55 3.287-7.048 6.887-12.375-11.745-28.706-18.354-46.053-18.354-36.95 0-67.011 30.061-67.011 67.012s30.061 67.012 67.011 67.012c17.346 0 33.678-6.609 46.053-18.355 2.649 3.466 5.609 5.654 7.049 6.888a76.743 76.743 0 0 1-53.102 21.301zm141.649-35.773c-10.97 10.971-25.556 17.012-41.07 17.012a58.335 58.335 0 0 1-15.326-2.05l71.331-71.331c5.276 19.45.309 41.125-14.935 56.369z" fill="#FFFFFF" data-original="#000000" opacity="1" class=""></path></g></svg>