<svg xmlns="http://www.w3.org/2000/svg" version="1.1" xmlns:xlink="http://www.w3.org/1999/xlink" xmlns:svgjs="http://svgjs.com/svgjs" width="512" height="512" x="0" y="0" viewBox="0 0 6.35 6.35" style="enable-background:new 0 0 512 512" xml:space="preserve"><g><path d="M3.176.264C1.572.264.264 1.572.264 3.176s1.308 2.91 2.912 2.91a2.914 2.914 0 0 0 2.91-2.91.265.265 0 0 0-.265-.266.265.265 0 0 0-.264.266 2.376 2.376 0 0 1-2.38 2.381 2.38 2.38 0 1 1 0-4.764.265.265 0 0 0 .263-.264.265.265 0 0 0-.264-.265zM4.18.463a.264.264 0 0 0-.098.51l.008.004a.265.265 0 1 0 .205-.488L4.284.483a.264.264 0 0 0-.104-.02zm.861.572a.265.265 0 0 0-.186.453l.006.006a.265.265 0 1 0 .376-.373l-.008-.008a.265.265 0 0 0-.188-.078zm-1.865.288a.265.265 0 0 0-.266.265v1.588a.265.265 0 0 0 .147.236l1.058.53a.265.265 0 0 0 .356-.12.265.265 0 0 0-.12-.355l-.911-.455V1.588a.265.265 0 0 0-.264-.265zm2.444.569a.265.265 0 0 0-.246.368c0 .003.002.005.003.008a.265.265 0 1 0 .49-.201c0-.004-.002-.007-.004-.01a.265.265 0 0 0-.243-.165z" fill="#FFFFFF" data-original="#000000" opacity="1"></path></g></svg>