<svg xmlns="http://www.w3.org/2000/svg" version="1.1" xmlns:xlink="http://www.w3.org/1999/xlink" xmlns:svgjs="http://svgjs.com/svgjs" width="512" height="512" x="0" y="0" viewBox="0 0 512 512" style="enable-background:new 0 0 512 512" xml:space="preserve" class=""><g><path d="M437.02 74.98C388.667 26.628 324.38 0 256 0S123.333 26.628 74.98 74.98C26.628 123.333 0 187.62 0 256s26.628 132.667 74.98 181.02C123.333 485.372 187.62 512 256 512s132.667-26.628 181.02-74.98C485.372 388.667 512 324.38 512 256s-26.628-132.667-74.98-181.02zM256 491.602c-129.911 0-235.602-105.69-235.602-235.602S126.089 20.398 256 20.398 491.602 126.089 491.602 256 385.911 491.602 256 491.602z" fill="#FFFFFF" data-original="#000000" class="" opacity="1"></path><path d="M256 449.785c-106.853 0-193.785-86.932-193.785-193.785 0-5.633-4.566-10.199-10.199-10.199S41.817 250.367 41.817 256c0 118.101 96.083 214.183 214.183 214.183 5.633 0 10.199-4.566 10.199-10.199s-4.566-10.199-10.199-10.199zM432.035 133.957c-24.38-35.103-58.218-61.874-97.856-77.422-5.24-2.056-11.162.526-13.219 5.771s.526 11.162 5.771 13.219C401.483 104.846 449.785 175.686 449.785 256c0 5.633 4.566 10.199 10.199 10.199s10.199-4.566 10.199-10.199c0-43.907-13.191-86.108-38.148-122.043zM280.619 43.217a217.267 217.267 0 0 0-24.619-1.4c-5.633 0-10.199 4.566-10.199 10.199S250.367 62.215 256 62.215c7.449 0 14.951.426 22.297 1.268.394.046.785.067 1.173.067 5.114 0 9.525-3.838 10.121-9.04.642-5.596-3.376-10.652-8.972-11.293z" fill="#FFFFFF" data-original="#000000" class="" opacity="1"></path></g></svg>