<svg xmlns="http://www.w3.org/2000/svg" version="1.1" xmlns:xlink="http://www.w3.org/1999/xlink" xmlns:svgjs="http://svgjs.com/svgjs" width="512" height="512" x="0" y="0" viewBox="0 0 64 64" style="enable-background:new 0 0 512 512" xml:space="preserve" class=""><g><path d="M30.316 22.052A20.53 20.53 0 0 0 29 21.671V16a1 1 0 0 0-1-1v-1.586l.707-.707a.999.999 0 0 0 0-1.414L28.414 11l.293-.293a.999.999 0 0 0 0-1.414L28 8.586V7a1 1 0 0 0-1-1h-8a1 1 0 0 0-1 1v1.586l-.707.707a.999.999 0 0 0 0 1.414l.293.293-.293.293a.999.999 0 0 0 0 1.414l.707.707V15a1 1 0 0 0-1 1v5.671c-.441.115-.882.236-1.316.381A.998.998 0 0 0 15 23v39a1 1 0 0 0 1 1h14a1 1 0 0 0 1-1V23a.998.998 0 0 0-.684-.948zm-10.609-9.759L19.414 12l.293-.293a.999.999 0 0 0 0-1.414L19.414 10l.293-.293A.996.996 0 0 0 20 9V8h6v1c0 .266.105.52.293.707l.293.293-.293.293a.999.999 0 0 0 0 1.414l.293.293-.293.293A.996.996 0 0 0 26 13v2h-6v-2a.996.996 0 0 0-.293-.707zM19 17h8v4.25c-1.044-.164-2.1-.25-3.162-.25h-1.676c-1.062 0-2.118.086-3.162.25zm7.964 6.277-.91 32.751a.994.994 0 0 1-.999.972h-4.109a.994.994 0 0 1-.999-.972l-.91-32.751A18.439 18.439 0 0 1 22.162 23h1.676c1.052 0 2.095.1 3.126.277zM29 61H17V23.735l.047-.012.899 32.36A2.984 2.984 0 0 0 20.945 59h4.109a2.984 2.984 0 0 0 2.999-2.917l.899-32.36c.016.005.032.007.047.012V61zM48 34h-4V12.722c.595-.347 1-.985 1-1.722V3.5a2.502 2.502 0 0 0-3.999-2.001L41 1.5l-3.6 2.7a1 1 0 0 0-.4.8v6c0 .737.405 1.375 1 1.722V34h-4a1 1 0 0 0-1 1v25c0 1.654 1.346 3 3 3h10c1.654 0 3-1.346 3-3V35a1 1 0 0 0-1-1zM39 5.5l3.198-2.399c.309-.231.802.016.802.399V11h-4zm1 7.5h2v21h-2zm7 47a1 1 0 0 1-1 1H36a1 1 0 0 1-1-1V36h12z" fill="#d61842" data-original="#000000" opacity="1" class=""></path><path d="M43 38h2v2h-2zM43 42h2v17h-2z" fill="#d61842" data-original="#000000" opacity="1" class=""></path></g></svg>