<svg xmlns="http://www.w3.org/2000/svg" version="1.1" xmlns:xlink="http://www.w3.org/1999/xlink" xmlns:svgjs="http://svgjs.com/svgjs" width="512" height="512" x="0" y="0" viewBox="0 0 64 64" style="enable-background:new 0 0 512 512" xml:space="preserve" class=""><g><path d="M55.669 33.587c-.774-.651-1.653-1.229-2.579-1.76l4.504-16.742a2.46 2.46 0 0 0-.247-1.898 2.507 2.507 0 0 0-1.56-1.178l-1.101-.269a2.489 2.489 0 0 0-3.02 1.74l-4.459 15.955a35.57 35.57 0 0 0-4.003-.845l1.786-11.897 1.971-3.297a3.58 3.58 0 0 0 .529-1.887c0-.779-.261-1.552-.729-2.169a6.295 6.295 0 0 0-6.096-2.445l-.267.047c-1.959.32-3.276 2.12-2.999 4.101l.62 4.304-1.899 12.656a68.348 68.348 0 0 0-3.891.036l-3.137-12.561c.98-1.89 4.671-9.463 2.872-13.131-.532-1.085-1.49-1.771-2.771-1.984-6.531-1.091-10.733.432-13.11 1.898-1.37.851-2.271 2.333-2.41 3.972-.494 6.379 4.933 9.911 6.509 10.798l3.863 13.913c-.509-.099-1.033-.207-1.552-.312l.325-1.949a1.989 1.989 0 0 0-.445-1.621 1.995 1.995 0 0 0-1.527-.709h-2.972a1.99 1.99 0 0 0-1.89 1.353c-2.945-.735-8.25-1.568-11.71.742-1.859 1.241-2.948 3.189-3.236 5.791-.201 1.802.224 3.067 1.261 3.761.526.352 1.169.529 1.942.529.154 0 .318-.014.482-.028-3.297 8.384-1.428 20.314-.989 22.769A3.299 3.299 0 0 0 7 64h49.13c1.637 0 3.042-1.167 3.271-2.72.144-1.011-.244-1.64-.594-1.987-.229-.229-.385-.578-.494-.933 4.126-11.322 3.218-19.888-2.644-24.773zm-1.284 1.534c4.767 3.972 5.081 10.298 3.852 16.296-.342-6.686-2.751-10.674-6.836-13.31l1.151-4.28c.651.4 1.275.824 1.833 1.294zm-2.157-7.789-2.624 9.752a25.52 25.52 0 0 0-2.187-.971l2.651-9.485c.602.215 1.315.448 2.16.704zm-1.619-2.635 1.675-5.992c.687.239 1.417.47 2.085.671L52.748 25.4a41.933 41.933 0 0 1-2.139-.703zm3.594-11.015 1.096.267a.513.513 0 0 1 .317.24.483.483 0 0 1 .048.372l-.776 2.884a48.584 48.584 0 0 1-2.065-.67l.769-2.753a.493.493 0 0 1 .611-.34zM46.67 31.361l-1.139 4.075a49.532 49.532 0 0 0-3.216-.919l.593-3.948a33.21 33.21 0 0 1 3.762.792zm-3.753-14.333-.731 4.87c-.919-.256-1.943-.438-3.043-.559l.735-4.9c1.124.12 2.15.318 3.039.589zm-1.032 6.875-1.523 10.145c-.976-.22-1.988-.431-3.031-.638l1.514-10.092c1.119.12 2.146.317 3.04.585zM40.734 8.914l.267-.047a4.298 4.298 0 0 1 4.163 1.679 1.603 1.603 0 0 1 .088 1.812l-1.665 2.786c-1.082-.339-2.314-.576-3.678-.711l-.529-3.671a1.625 1.625 0 0 1 1.354-1.848zm-4.913 21.085-.455 3.034c-.649-.122-1.309-.244-1.981-.366l-.659-2.641a63.966 63.966 0 0 1 3.095-.027zm-8.579-13.68 1.295 5.186a24.36 24.36 0 0 0-4.74 1.069l-1.527-5.498c1.218-.337 2.974-.71 4.972-.757zM15.666 6.395a3.188 3.188 0 0 1 1.47-2.434c1.706-1.053 5.501-2.661 11.73-1.625.643.107 1.057.391 1.303.892 1.067 2.176-1.007 7.722-2.73 11.093-2.606.041-4.879.576-6.243.985-1.196-.66-5.939-3.622-5.53-8.911zm8.667 18.11a22.203 22.203 0 0 1 4.694-1.039l2.2 8.809-.043-.008a641.07 641.07 0 0 1-4.946-.905zm-3.488 3.848-.667 4-2.972-.001.098-.587.002-.01.568-3.402zm-.665 4-.001 1 .001-1c-.001 0-.001 0 0 0zm37.241 28.641c-.083.565-.65 1.006-1.291 1.006H7c-.643 0-1.188-.45-1.296-1.076-.446-2.497-2.439-15.187 1.462-23 1.111-.396 2.379-.986 3.82-1.777a1 1 0 1 0-.962-1.754c-4.855 2.664-6.29 2.16-6.612 1.944-.458-.307-.463-1.19-.387-1.878.223-2.016.994-3.438 2.358-4.349 2.876-1.921 7.637-1.1 10.242-.434l-.222 1.329a73.341 73.341 0 0 1-2.775 1.848 1 1 0 0 0 1.065 1.694 70.46 70.46 0 0 0 1.802-1.178c.056.095.114.19.186.275.38.449.937.707 1.525.707h2.973c.982 0 1.812-.703 1.973-1.672l.013-.075c3.05.615 5.905 1.133 8.665 1.631C48.736 37.461 57.724 39.079 56.1 57c0 .247.036 2.45 1.294 3.708.053.054.036.222.027.286z" fill="#D61842" data-original="#000000" opacity="1" class=""></path><path d="M6.513 30.353c-1.371 0-2.487 1.116-2.487 2.487s1.116 2.486 2.487 2.486S9 34.211 9 32.84s-1.116-2.487-2.487-2.487zm0 2.973a.487.487 0 1 1 0-.973.487.487 0 0 1 0 .973zM18.509 7.798a1 1 0 1 0-1.664 1.11l2 3a.998.998 0 0 0 1.387.277 1 1 0 0 0 .277-1.387zM21.069 10.822a1 1 0 0 0 1.957-.412l-.742-3.528a1 1 0 1 0-1.957.413zM26.669 11.167a.999.999 0 0 0 1.313-.525l1.42-3.313a.999.999 0 1 0-1.837-.787l-1.42 3.313a.997.997 0 0 0 .524 1.312zM24.572 10.957h.024a1 1 0 0 0 1-.976l.087-3.604a1 1 0 0 0-.976-1.024h-.024a1 1 0 0 0-1 .976l-.087 3.604c-.012.552.425 1.01.976 1.024zM41.053 13.921l.042-.001a.999.999 0 0 0 .958-1.04l-.084-2.068c-.022-.552-.465-.999-1.04-.958a.999.999 0 0 0-.958 1.04l.084 2.068a1 1 0 0 0 .998.959zM43.061 14.374a1 1 0 0 0 1.224-.708l.548-2.056a1 1 0 1 0-1.932-.516l-.548 2.056a.998.998 0 0 0 .708 1.224zM44 43H16c-1.103 0-2 .897-2 2v10c0 1.103.897 2 2 2h28c1.103 0 2-.897 2-2V45c0-.534-.208-1.036-.586-1.414A2.02 2.02 0 0 0 44 43zM16 55V45h28l.002 10z" fill="#D61842" data-original="#000000" opacity="1" class=""></path><path d="M42 52h-3a1 1 0 1 0 0 2h3a1 1 0 1 0 0-2zM24 48h3a1 1 0 1 0 0-2h-3a1 1 0 1 0 0 2zM30 48h3a1 1 0 1 0 0-2h-3a1 1 0 1 0 0 2zM18 48h3a1 1 0 1 0 0-2h-3a1 1 0 1 0 0 2zM36 48h3a1 1 0 1 0 0-2h-3a1 1 0 1 0 0 2zM42 46a1 1 0 0 0-1 1v3a1 1 0 1 0 2 0v-3a1 1 0 0 0-1-1zM18 49a1 1 0 0 0-1 1v3a1 1 0 1 0 2 0v-3a1 1 0 0 0-1-1zM30 52h-3a1 1 0 1 0 0 2h3a1 1 0 1 0 0-2zM36 52h-3a1 1 0 1 0 0 2h3a1 1 0 1 0 0-2zM24 52h-3a1 1 0 1 0 0 2h3a1 1 0 1 0 0-2z" fill="#D61842" data-original="#000000" opacity="1" class=""></path></g></svg>