<svg width="32" height="46" viewBox="0 0 32 46" fill="none" xmlns="http://www.w3.org/2000/svg">
<path d="M24.7002 17.2C25.6002 9.2 23.4002 6.3 18.9002 0C24.1002 8 25.4002 11.4 21.5002 20.9C20.8002 22.5 20.1002 24 19.2002 25.5C20.3002 22.3 19.8002 17.9 15.7002 15.3C15.6002 19.4 12.8002 25 16.4002 27.2C16.8002 25.9 17.1002 23.9 17.0002 19.9C17.6002 22.1 17.7002 24.5 17.1002 26.7C15.8002 32 9.80019 38 4.80019 42.5C6.90019 37.8 6.2002 39.2 9.7002 31.1C10.2002 32.4 10.7002 33.5 11.0002 34.4C12.0002 33.3 13.0002 32.1 13.8002 31L11.3002 24.9H9.9002L0.700195 46H3.30019H4.50019C7.80019 43.3 10.4002 41.1 12.7002 38.7C13.0002 39.6 13.4002 40.5 14.0002 41.9C14.4002 42.8 14.8002 43.5 15.3002 44.1C15.8002 44.6 16.3002 45.1 16.9002 45.3C17.5002 45.6 18.0002 45.8 18.6002 45.9C19.2002 46 19.7002 46 20.2002 46C20.4002 46 20.7002 46 21.0002 46C21.3002 46 21.5002 45.9 21.7002 45.9V45C21.0002 44.9 20.4002 44.6 19.8002 44C19.3002 43.4 18.8002 42.7 18.4002 41.8L15.7002 35.2C19.1002 30.8 20.8002 28.5 24.5002 19.7C25.3002 17.8 26.6002 15.8 28.9002 15C26.7002 16.4 25.6002 18.6 25.2002 19.7C28.4002 20.6 29.0002 15.4 31.7002 13.3C27.3002 13.5 25.8002 14.8 24.7002 17.2Z" fill="#F0888C"/>
</svg>
